<?xml version="1.0" encoding="UTF-8"?>
<svg width="11px" height="7px" viewBox="0 0 11 7" version="1.1" xmlns="http://www.w3.org/2000/svg" xmlns:xlink="http://www.w3.org/1999/xlink">
    <!-- Generator: Sketch 48.2 (47327) - http://www.bohemiancoding.com/sketch -->
    <title>Combined Shape</title>
    <desc>Created with Sketch.</desc>
    <defs></defs>
    <g id="Cart" stroke="none" stroke-width="1" fill="none" fill-rule="evenodd" transform="translate(-1296.000000, -433.000000)">
        <g id="dropdown-" transform="translate(1180.000000, 409.000000)" fill="#1E1D25">
            <g id="dropdown-icon" transform="translate(110.000000, 11.000000)">
                <g id="dropdown">
                    <path d="M11.4319805,16.517767 L14.5961941,13.3535534 C14.7914562,13.1582912 15.1080387,13.1582912 15.3033009,13.3535534 L16.0104076,14.0606602 C16.2056698,14.2559223 16.2056698,14.5725048 16.0104076,14.767767 L12.6036146,18.17456 C12.5802415,18.2209895 12.5491725,18.264536 12.5104076,18.3033009 L11.8033009,19.0104076 C11.7011504,19.1125581 11.565797,19.161269 11.4319805,19.1565404 C11.298164,19.161269 11.1628106,19.1125581 11.0606602,19.0104076 L10.3535534,18.3033009 C10.3147885,18.264536 10.2837196,18.2209895 10.2603465,18.17456 L6.85355339,14.767767 C6.65829124,14.5725048 6.65829124,14.2559223 6.85355339,14.0606602 L7.56066017,13.3535534 C7.75592232,13.1582912 8.07250481,13.1582912 8.26776695,13.3535534 L11.4319805,16.517767 Z" id="Combined-Shape"></path>
                </g>
            </g>
        </g>
    </g>
</svg>