<?xml version="1.0" encoding="UTF-8"?>
<svg width="14px" height="10px" viewBox="0 0 14 10" version="1.1" xmlns="http://www.w3.org/2000/svg" xmlns:xlink="http://www.w3.org/1999/xlink">
    <!-- Generator: Sketch 48.2 (47327) - http://www.bohemiancoding.com/sketch -->
    <title>Combined Shape</title>
    <desc>Created with Sketch.</desc>
    <defs></defs>
    <g id="All-01" stroke="none" stroke-width="1" fill="none" fill-rule="evenodd" transform="translate(-986.000000, -1863.000000)">
        <g id="Pagination" transform="translate(415.000000, 1847.000000)" fill="#382828">
            <g id="Group-18" transform="translate(466.000000, 0.000000)">
                <path d="M115.432781,19.5431158 L113.390759,17.5010939 C113.195497,17.3058317 113.195497,16.9892492 113.390759,16.7939871 L114.038299,16.1464466 C114.233561,15.9511845 114.550144,15.9511845 114.745406,16.1464466 L117.932569,19.3336091 C118.028816,19.3512963 118.120875,19.3973553 118.195306,19.471786 L118.842846,20.1193265 C118.95635,20.2328301 119.003875,20.3873274 118.985422,20.5351601 C119.003875,20.6829928 118.95635,20.8374901 118.842846,20.9509937 L118.195306,21.5985341 C118.120875,21.6729649 118.028816,21.7190239 117.932569,21.7367111 L114.745406,24.9238736 C114.550144,25.1191357 114.233561,25.1191357 114.038299,24.9238736 L113.390759,24.2763331 C113.195497,24.081071 113.195497,23.7644885 113.390759,23.5692263 L115.501109,21.4588763 L105.5,21.4588763 C105.223858,21.4588763 105,21.2350187 105,20.9588763 L105,20.0431158 C105,19.7669734 105.223858,19.5431158 105.5,19.5431158 L106,19.5431158 L115.432781,19.5431158 Z" id="Combined-Shape"></path>
            </g>
        </g>
    </g>
</svg>