<?xml version="1.0" encoding="UTF-8"?>
<svg width="10px" height="12px" viewBox="0 0 10 12" version="1.1" xmlns="http://www.w3.org/2000/svg" xmlns:xlink="http://www.w3.org/1999/xlink">
    <!-- Generator: Sketch 48.2 (47327) - http://www.bohemiancoding.com/sketch -->
    <title>Combined Shape</title>
    <desc>Created with Sketch.</desc>
    <defs></defs>
    <g id="Footer" stroke="none" stroke-width="1" fill="none" fill-rule="evenodd" transform="translate(-1233.000000, -313.000000)">
        <g fill="#382828" id="Go-to-top">
            <g transform="translate(1133.000000, 298.000000)">
                <path d="M107.432781,19.5431158 L105.390759,17.5010939 C105.195497,17.3058317 105.195497,16.9892492 105.390759,16.7939871 L106.038299,16.1464466 C106.233561,15.9511845 106.550144,15.9511845 106.745406,16.1464466 L109.932569,19.3336091 C110.028816,19.3512963 110.120875,19.3973553 110.195306,19.471786 L110.842846,20.1193265 C110.95635,20.2328301 111.003875,20.3873274 110.985422,20.5351601 C111.003875,20.6829928 110.95635,20.8374901 110.842846,20.9509937 L110.195306,21.5985341 C110.120875,21.6729649 110.028816,21.7190239 109.932569,21.7367111 L106.745406,24.9238736 C106.550144,25.1191357 106.233561,25.1191357 106.038299,24.9238736 L105.390759,24.2763331 C105.195497,24.081071 105.195497,23.7644885 105.390759,23.5692263 L107.501109,21.4588763 L100.5,21.4588763 C100.223858,21.4588763 100,21.2350187 100,20.9588763 L100,20.0431158 C100,19.7669734 100.223858,19.5431158 100.5,19.5431158 L101,19.5431158 L107.432781,19.5431158 Z" id="Combined-Shape" transform="translate(105.494647, 20.535160) rotate(-90.000000) translate(-105.494647, -20.535160) "></path>
            </g>
        </g>
    </g>
</svg>